<svg xmlns="http://www.w3.org/2000/svg" xmlns:xlink="http://www.w3.org/1999/xlink" width="32" height="32" version="1.1" viewBox="0 0 32 32"><title>Hover Box</title><desc>Created with Sketch.</desc><g id="Page-1" fill="none" fill-rule="evenodd" stroke="none" stroke-width="1"><g id="Hover-Box"><rect id="Rectangle" width="32" height="32" x="0" y="0" fill="#91BFF4" rx="3"/><path id="Combined-Shape" fill="#40915A" d="M25.5954544,32 L2.99610022,32 C1.34139976,32 0,30.6657405 0,29.0038998 L0,25.1984848 L10.1984848,15 L26.3969696,31.1984848 L25.5954544,32 Z"/><path id="Combined-Shape" fill="#4CAD6B" d="M32,19.8015152 L32,29.0038998 C32,30.6586002 30.6657405,32 29.0038998,32 L2.99610022,32 C2.75050221,32 2.51180615,31.9706065 2.2833737,31.9151111 L23.1984848,11 L32,19.8015152 Z"/><rect id="Rectangle-10" width="5" height="5" x="6" y="6" fill="#FFC90F" rx="2.5"/><path id="Combined-Shape" fill="#BEB090" d="M15,0 L29.0038998,0 C30.6586002,0 32,1.33425951 32,2.99610022 L32,29.0038998 C32,30.6586002 30.6657405,32 29.0038998,32 L15,32 L15,0 Z"/><path id="Combined-Shape" fill="#EBE4D6" d="M15,10 L25.9975267,10 C26.5511774,10 27,10.4438648 27,11 C27,11.5522847 26.544239,12 25.9975267,12 L15,12 L15,10 Z M15,15 L25.9975267,15 C26.5511774,15 27,15.4438648 27,16 C27,16.5522847 26.544239,17 25.9975267,17 L15,17 L15,15 Z M15,20 L25.9975267,20 C26.5511774,20 27,20.4438648 27,21 C27,21.5522847 26.544239,22 25.9975267,22 L15,22 L15,20 Z"/></g></g></svg>