<svg xmlns="http://www.w3.org/2000/svg" xmlns:xlink="http://www.w3.org/1999/xlink" width="32" height="32" version="1.1" viewBox="0 0 32 32"><title>Accordion</title><desc>Created with Sketch.</desc><g id="Page-1" fill="none" fill-rule="evenodd" stroke="none" stroke-width="1"><g id="Accordion"><path id="Rectangle" fill="#ECECEC" d="M0,2.99686968 C0,1.34174426 1.33425951,0 2.99610022,0 L29.0038998,0 C30.6586002,0 32,1.34739093 32,2.99686968 L32,9 L0,9 L0,2.99686968 Z"/><path id="Rectangle" fill="#ECECEC" d="M0,11 L32,11 L32,28.991212 C32,30.6529197 30.6657405,32 29.0038998,32 L2.99610022,32 C1.34139976,32 0,30.6544098 0,28.991212 L0,11 Z"/><path id="Combined-Shape" fill="#D8D8D8" d="M4,15 L28,15 L28,28 L4,28 L4,15 Z M6,17 L6,26 L26,26 L26,17 L6,17 Z"/></g></g></svg>