<svg xmlns="http://www.w3.org/2000/svg" xmlns:xlink="http://www.w3.org/1999/xlink" width="32" height="32" version="1.1" viewBox="0 0 32 32"><title>Separator Zig Zag</title><desc>Created with Sketch.</desc><defs><path id="path-1" d="M19.6923882,14.1923882 L19.6923882,14.6923882 L16.6923882,14.6923882 L16.6923882,17.6923882 L16.1923882,17.6923882 L13.6923882,17.6923882 L13.6923882,20.6923882 L13.1923882,20.6923882 L10.6923882,20.6923882 L10.6923882,23.6923882 L9.69238816,23.6923882 L9.69238816,19.6923882 L12.6923882,19.6923882 L12.6923882,16.6923882 L15.6923882,16.6923882 L15.6923882,13.6923882 L18.6923882,13.6923882 L18.6923882,10.6923882 L22.6923882,10.6923882 L22.6923882,11.6923882 L19.6923882,11.6923882 L19.6923882,14.1923882 Z"/></defs><g id="Page-1" fill="none" fill-rule="evenodd" stroke="none" stroke-width="1"><g id="Separator-Zig-Zag"><rect id="Rectangle" width="32" height="32" x="0" y="0" fill="#ECECEC" rx="5"/><g id="Combined-Shape" transform="translate(16.192388, 17.192388) rotate(-315.000000) translate(-16.192388, -17.192388)"><use fill="#D8D8D8" fill-rule="evenodd" xlink:href="#path-1"/><path stroke="#979797" stroke-width="1" d="M16.1923882,17.1923882 L16.1923882,17.6923882 L16.6923882,17.1923882 L16.1923882,17.1923882 Z M13.1923882,20.1923882 L13.1923882,20.6923882 L13.6923882,20.1923882 L13.1923882,20.1923882 Z M10.1923882,20.1923882 L10.1923882,19.6923882 L9.69238816,20.1923882 L10.1923882,20.1923882 Z M13.1923882,17.1923882 L13.1923882,16.6923882 L12.6923882,17.1923882 L13.1923882,17.1923882 Z M16.1923882,14.1923882 L16.1923882,13.6923882 L15.6923882,14.1923882 L16.1923882,14.1923882 Z M19.1923882,11.1923882 L19.1923882,10.6923882 L18.6923882,11.1923882 L19.1923882,11.1923882 Z M19.1923882,14.1923882 L19.1923882,14.6923882 L19.6923882,14.1923882 L19.1923882,14.1923882 Z M10.1923882,23.1923882 L9.69238816,23.1923882 L10.1923882,23.6923882 L10.1923882,23.1923882 Z M22.1923882,11.1923882 L22.1923882,11.6923882 L22.6923882,11.1923882 L22.1923882,11.1923882 Z M10.1923882,23.1923882 L10.1923882,20.1923882 L12.6923882,20.1923882 L13.1923882,20.1923882 L13.1923882,17.1923882 L16.1923882,17.1923882 L16.1923882,14.1923882 L19.1923882,14.1923882 L19.1923882,11.1923882 L22.6923882,11.1923882 L22.1923882,10.6923882 L22.1923882,11.1923882 L19.1923882,11.1923882 L19.1923882,14.1923882 L16.1923882,14.1923882 L16.1923882,17.1923882 L13.1923882,17.1923882 L13.1923882,20.1923882 L10.1923882,20.1923882 L10.1923882,23.6923882 L10.6923882,23.1923882 L10.1923882,23.1923882 Z"/></g></g></g></svg>