<svg xmlns="http://www.w3.org/2000/svg" xmlns:xlink="http://www.w3.org/1999/xlink" width="32" height="32" version="1.1" viewBox="0 0 32 32"><title>Posts Slider</title><desc>Created with Sketch.</desc><g id="Page-1" fill="none" fill-rule="evenodd" stroke="none" stroke-width="1"><g id="Posts-Slider"><path id="Rectangle" fill="#91BFF4" d="M2,2.99610022 C2,1.34139976 3.3504982,0 4.99649048,0 L27.0035095,0 C28.6584255,0 30,1.33425951 30,2.99610022 L30,29.0038998 C30,30.6586002 28.6495018,32 27.0035095,32 L4.99649048,32 C3.34157448,32 2,30.6657405 2,29.0038998 L2,2.99610022 Z"/><rect id="Rectangle" width="32" height="4" x="0" y="0" fill="#55779D" rx="2"/><path id="Combined-Shape" fill="#40915A" d="M25.5954544,32 L4.99649048,32 C3.34157448,32 2,30.6657405 2,29.0038998 L2,23.1984848 L10.1984848,15 L26.3969696,31.1984848 L25.5954544,32 Z"/><path id="Combined-Shape" fill="#4CAD6B" d="M30,17.8015152 L30,29.0038998 C30,30.6586002 28.6495018,32 27.0035095,32 L4.99649048,32 C4.21886281,32 3.51041974,31.7054006 2.97784024,31.2206446 L23.1984848,11 L30,17.8015152 Z"/><rect id="Rectangle-10" width="5" height="5" x="6" y="7" fill="#FFC90F" rx="2.5"/></g></g></svg>