<svg xmlns="http://www.w3.org/2000/svg" xmlns:xlink="http://www.w3.org/1999/xlink" width="32" height="32" version="1.1" viewBox="0 0 32 32"><title>Doughnut Chart</title><desc>Created with Sketch.</desc><g id="Page-1" fill="none" fill-rule="evenodd" stroke="none" stroke-width="1"><g id="Doughnut-Chart" fill-rule="nonzero"><path id="Shape" fill="#F06E6B" d="M24.8275862,16 C24.8275862,20.8755862 20.8755862,24.8275862 16,24.8275862 L16,32 C24.8364138,32 32,24.8364138 32,16 C32,7.16358621 24.8364138,0 16,0 L16,7.17241379 C20.8755862,7.17241379 24.8275862,11.1244138 24.8275862,16 Z"/><path id="Shape" fill="#56B6E0" d="M16,32 C20.4182069,32 24.4182069,30.2091034 27.3136552,27.3136552 C24.8077241,24.8077241 24.3950345,24.3950345 22.2422069,22.2422069 C20.6444138,23.8394483 18.4375172,24.8275862 16,24.8275862 C13.5624828,24.8275862 11.3555862,23.8394483 9.7577931,22.2422069 L4.68634483,27.3136552 C7.5817931,30.2091034 11.5817931,32 16,32 Z"/><path id="Shape" fill="#FFC90F" d="M7.17241379,16 C7.17241379,11.1244138 11.1244138,7.17241379 16,7.17241379 L16,0 C7.16358621,0 0,7.16358621 0,16 C0,20.4182069 1.79089655,24.4182069 4.68634483,27.3136552 L9.7577931,22.2422069 C8.16055172,20.6444138 7.17241379,18.4375172 7.17241379,16 Z"/></g></g></svg>