<svg xmlns="http://www.w3.org/2000/svg" xmlns:xlink="http://www.w3.org/1999/xlink" width="32" height="32" version="1.1" viewBox="0 0 32 32"><title>Image Carousel</title><desc>Created with Sketch.</desc><g id="Page-1" fill="none" fill-rule="evenodd" stroke="none" stroke-width="1"><g id="Image-Carousel"><path id="Rectangle" fill="#55779D" d="M0,4.99649048 C0,3.34157448 1.33425951,2 2.99610022,2 L29.0038998,2 C30.6586002,2 32,3.3504982 32,4.99649048 L32,27.0035095 C32,28.6584255 30.6657405,30 29.0038998,30 L2.99610022,30 C1.34139976,30 0,28.6495018 0,27.0035095 L0,4.99649048 Z"/><rect id="Rectangle" width="26" height="29" x="3" y="0" fill="#91BFF4" rx="3"/><path id="Combined-Shape" fill="#40915A" d="M25.5954544,32 L6.00793008,32 C4.34669617,32 3,30.6526814 3,28.9999809 L3,22.1984848 L10.1984848,15 L26.3969696,31.1984848 L25.5954544,32 Z"/><path id="Combined-Shape" fill="#4CAD6B" d="M29,16.8015152 L29,28.9999809 C29,30.6568457 27.6568766,32 25.9920699,32 L6.00793008,32 C4.97205942,32 4.05848758,31.4761345 3.51746254,30.6810223 L23.1984848,11 L29,16.8015152 Z"/><rect id="Rectangle-10" width="5" height="5" x="6" y="4" fill="#FFC90F" rx="2.5"/><rect id="Rectangle-10" width="3" height="3" x="15" y="25" fill="#FFF" fill-opacity=".5" rx="1.5"/><rect id="Rectangle-10" width="3" height="3" x="10" y="25" fill="#FFF" rx="1.5"/><rect id="Rectangle-10" width="3" height="3" x="20" y="25" fill="#FFF" fill-opacity=".5" rx="1.5"/></g></g></svg>