<svg xmlns="http://www.w3.org/2000/svg" xmlns:xlink="http://www.w3.org/1999/xlink" width="32" height="32" version="1.1" viewBox="0 0 32 32"><title>Message Box</title><desc>Created with Sketch.</desc><g id="Page-1" fill="none" fill-rule="evenodd" stroke="none" stroke-width="1"><g id="Message-Box"><rect id="Rectangle" width="32" height="32" x="0" y="0" fill="#3B93F9" rx="16"/><path id="Combined-Shape" fill="#FFF" d="M16,7 C17.104625,7 18,7.8955 18,9 C18,10.105 17.104625,11 16,11 C14.895375,11 14,10.105 14,9 C14,7.8955 14.895375,7 16,7 Z M19,23 L13,23 C12.44775,23 12,22.55275 12,22 C12,21.44775 12.44775,21 13,21 L14,21 L14,15 L13,15 C12.44775,15 12,14.55275 12,14 C12,13.44775 12.44775,13 13,13 L17,13 C17.55225,13 18,13.44775 18,14 L18,21 L19,21 C19.55225,21 20,21.44775 20,22 C20,22.55275 19.55225,23 19,23 Z"/></g></g></svg>