<svg xmlns="http://www.w3.org/2000/svg" xmlns:xlink="http://www.w3.org/1999/xlink" width="32" height="32" version="1.1" viewBox="0 0 32 32"><title>Widget Sidebar</title><desc>Created with Sketch.</desc><g id="Page-1" fill="none" fill-rule="evenodd" stroke="none" stroke-width="1"><g id="Widget-Sidebar"><rect id="Rectangle" width="32" height="32" x="0" y="0" fill="#3C83B8" rx="5"/><rect id="Rectangle" width="18" height="18" x="7" y="7" fill="#FFF" rx="3"/><path id="Combined-Shape" fill="#3C83B8" d="M15,23 L20.9941413,23 C22.1029399,23 23,22.1019465 23,20.9941413 L23,14 L9,14 L9,20.9941413 C9,22.1029399 9.89805351,23 11.0058587,23 L13,23 L13,14 L15,14 L15,23 Z M23,12 L23,11.0058587 C23,9.89706013 22.1019465,9 20.9941413,9 L11.0058587,9 C9.89706013,9 9,9.89805351 9,11.0058587 L9,12 L23,12 Z"/><path id="Combined-Shape" fill="#7ED321" d="M9,14 L9,21.0059397 C9,22.1054862 9.8927712,23 10.9940603,23 L13,23 L13,14 L9,14 Z"/></g></g></svg>