<svg xmlns="http://www.w3.org/2000/svg" xmlns:xlink="http://www.w3.org/1999/xlink" width="32" height="32" version="1.1" viewBox="0 0 32 32"><title>Post Grid</title><desc>Created with Sketch.</desc><g id="Page-1" fill="none" fill-rule="evenodd" stroke="none" stroke-width="1"><g id="Post-Grid"><rect id="Rectangle" width="32" height="32" x="0" y="0" fill="#FA5500" rx="5"/><path id="Combined-Shape" fill="#FFF" d="M13,9 L19,9 L19,15 L13,15 L13,9 Z M15,11 L15,13 L17,13 L17,11 L15,11 Z"/><path id="Combined-Shape" fill="#FFF" d="M5,9 L11,9 L11,15 L5,15 L5,9 Z M7,11 L7,13 L9,13 L9,11 L7,11 Z"/><path id="Combined-Shape" fill="#FFF" d="M21,9 L27,9 L27,15 L21,15 L21,9 Z M23,11 L23,13 L25,13 L25,11 L23,11 Z"/><path id="Combined-Shape" fill="#FFF" d="M13,17 L19,17 L19,23 L13,23 L13,17 Z M15,19 L15,21 L17,21 L17,19 L15,19 Z"/><path id="Combined-Shape" fill="#FFF" d="M5,17 L11,17 L11,23 L5,23 L5,17 Z M7,19 L7,21 L9,21 L9,19 L7,19 Z"/><path id="Combined-Shape" fill="#FFF" d="M21,17 L27,17 L27,23 L21,23 L21,17 Z M23,19 L23,21 L25,21 L25,19 L23,19 Z"/></g></g></svg>